<svg xmlns="http://www.w3.org/2000/svg" xmlns:xlink="http://www.w3.org/1999/xlink" width="1080" zoomAndPan="magnify" viewBox="0 0 810 809.999993" height="1080" preserveAspectRatio="xMidYMid meet" version="1.0"><path fill="#ffffff" d="M 197.753906 87.078125 C 197.3125 86.34375 196.90625 85.589844 196.542969 84.8125 C 196.175781 84.039062 195.847656 83.246094 195.558594 82.441406 C 195.269531 81.632812 195.023438 80.8125 194.816406 79.980469 C 194.609375 79.148438 194.445312 78.308594 194.320312 77.460938 C 194.199219 76.613281 194.117188 75.761719 194.078125 74.90625 C 194.039062 74.046875 194.042969 73.191406 194.089844 72.335938 C 194.132812 71.480469 194.222656 70.628906 194.355469 69.78125 C 194.484375 68.933594 194.65625 68.097656 194.871094 67.265625 C 195.085938 66.4375 195.339844 65.617188 195.632812 64.8125 C 195.929688 64.007812 196.261719 63.222656 196.636719 62.449219 C 197.007812 61.679688 197.421875 60.925781 197.867188 60.195312 C 198.316406 59.464844 198.796875 58.757812 199.316406 58.074219 C 199.835938 57.390625 200.386719 56.738281 200.96875 56.109375 C 201.550781 55.480469 202.164062 54.882812 202.808594 54.316406 C 203.449219 53.746094 204.117188 53.214844 204.8125 52.710938 C 205.507812 52.210938 206.226562 51.746094 206.96875 51.316406 C 207.710938 50.886719 208.472656 50.492188 209.253906 50.140625 C 210.03125 49.785156 210.828125 49.472656 211.640625 49.195312 C 212.453125 48.921875 213.277344 48.6875 214.113281 48.492188 C 214.945312 48.300781 215.789062 48.148438 216.640625 48.039062 C 217.488281 47.929688 218.34375 47.859375 219.199219 47.835938 C 220.054688 47.8125 220.914062 47.828125 221.765625 47.886719 C 222.621094 47.949219 223.472656 48.050781 224.316406 48.195312 C 225.164062 48.339844 225.996094 48.523438 226.824219 48.75 C 227.652344 48.980469 228.464844 49.246094 229.265625 49.554688 C 230.0625 49.863281 230.847656 50.210938 231.613281 50.59375 C 232.378906 50.980469 233.121094 51.402344 233.847656 51.863281 C 234.570312 52.324219 235.269531 52.816406 235.941406 53.34375 C 236.617188 53.875 237.265625 54.4375 237.882812 55.027344 C 238.5 55.621094 239.089844 56.246094 239.648438 56.894531 C 240.203125 57.546875 240.726562 58.226562 241.21875 58.929688 C 241.707031 59.632812 242.160156 60.359375 242.578125 61.105469 L 275.933594 118.652344 C 276.363281 119.386719 276.761719 120.140625 277.117188 120.917969 C 277.476562 121.691406 277.796875 122.480469 278.078125 123.285156 C 278.359375 124.089844 278.597656 124.90625 278.800781 125.738281 C 279 126.566406 279.160156 127.402344 279.277344 128.246094 C 279.394531 129.09375 279.472656 129.941406 279.507812 130.792969 C 279.542969 131.644531 279.535156 132.496094 279.484375 133.347656 C 279.4375 134.199219 279.34375 135.046875 279.214844 135.890625 C 279.082031 136.734375 278.90625 137.566406 278.695312 138.390625 C 278.480469 139.21875 278.226562 140.03125 277.929688 140.832031 C 277.636719 141.632812 277.304688 142.417969 276.933594 143.183594 C 276.5625 143.953125 276.152344 144.699219 275.707031 145.429688 C 275.261719 146.15625 274.785156 146.859375 274.269531 147.539062 C 273.757812 148.222656 273.210938 148.875 272.632812 149.503906 C 272.054688 150.128906 271.445312 150.726562 270.808594 151.292969 C 270.171875 151.859375 269.507812 152.394531 268.820312 152.898438 C 268.128906 153.398438 267.417969 153.867188 266.679688 154.296875 C 265.945312 154.730469 265.191406 155.125 264.417969 155.484375 C 263.640625 155.839844 262.851562 156.160156 262.046875 156.441406 C 261.242188 156.71875 260.421875 156.960938 259.59375 157.160156 C 258.765625 157.359375 257.929688 157.519531 257.082031 157.636719 C 256.238281 157.753906 255.390625 157.828125 254.539062 157.863281 C 253.683594 157.898438 252.832031 157.890625 251.980469 157.839844 C 251.128906 157.789062 250.285156 157.699219 249.441406 157.566406 C 248.597656 157.433594 247.765625 157.257812 246.9375 157.042969 C 246.113281 156.828125 245.300781 156.574219 244.5 156.28125 C 243.699219 155.984375 242.914062 155.652344 242.148438 155.28125 C 241.378906 154.90625 240.632812 154.5 239.90625 154.054688 C 239.179688 153.609375 238.472656 153.128906 237.792969 152.613281 C 237.113281 152.097656 236.460938 151.550781 235.835938 150.972656 C 235.207031 150.394531 234.609375 149.785156 234.042969 149.148438 C 233.476562 148.511719 232.941406 147.847656 232.441406 147.15625 C 231.941406 146.46875 231.472656 145.753906 231.042969 145.019531 Z M 405.066406 172.769531 C 409.5 172.773438 413.929688 172.90625 418.355469 173.160156 C 422.785156 173.417969 427.199219 173.804688 431.601562 174.3125 C 436.007812 174.824219 440.394531 175.457031 444.761719 176.21875 C 449.128906 176.980469 453.472656 177.867188 457.789062 178.878906 C 462.109375 179.886719 466.394531 181.019531 470.644531 182.277344 C 474.898438 183.53125 479.113281 184.90625 483.285156 186.40625 C 487.457031 187.902344 491.585938 189.515625 495.667969 191.25 C 499.75 192.984375 503.777344 194.832031 507.753906 196.796875 C 511.726562 198.761719 515.644531 200.835938 519.5 203.023438 C 523.355469 205.210938 527.148438 207.507812 530.871094 209.914062 C 534.597656 212.320312 538.25 214.832031 541.832031 217.445312 C 545.410156 220.058594 548.914062 222.773438 552.339844 225.589844 C 555.765625 228.40625 559.109375 231.316406 562.367188 234.324219 C 565.625 237.332031 568.796875 240.429688 571.875 243.617188 C 574.957031 246.804688 577.945312 250.078125 580.839844 253.4375 C 583.734375 256.796875 586.527344 260.238281 589.226562 263.757812 C 591.921875 267.277344 594.515625 270.871094 597.007812 274.539062 C 599.496094 278.207031 601.882812 281.945312 604.160156 285.75 C 606.433594 289.554688 608.601562 293.421875 610.65625 297.347656 C 612.710938 301.277344 614.652344 305.261719 616.480469 309.300781 C 618.308594 313.34375 620.019531 317.429688 621.609375 321.570312 C 623.203125 325.707031 624.675781 329.886719 626.03125 334.109375 C 627.382812 338.332031 628.617188 342.589844 629.726562 346.882812 C 630.835938 351.175781 631.820312 355.496094 632.683594 359.847656 C 633.546875 364.195312 634.28125 368.566406 634.894531 372.957031 C 635.507812 377.347656 635.992188 381.753906 636.351562 386.175781 C 636.710938 390.59375 636.941406 395.019531 637.050781 399.453125 C 637.15625 403.886719 637.132812 408.316406 636.984375 412.75 C 636.839844 417.179688 636.5625 421.605469 636.160156 426.019531 C 635.761719 430.4375 635.234375 434.835938 634.578125 439.222656 C 633.925781 443.609375 633.148438 447.972656 632.246094 452.3125 C 631.339844 456.652344 630.316406 460.964844 629.164062 465.246094 C 628.015625 469.527344 626.742188 473.773438 625.347656 477.984375 C 623.957031 482.195312 622.441406 486.359375 620.808594 490.480469 C 619.179688 494.605469 617.429688 498.675781 615.5625 502.699219 C 613.699219 506.722656 611.71875 510.6875 609.625 514.597656 C 607.535156 518.507812 605.332031 522.351562 603.019531 526.136719 C 600.707031 529.917969 598.285156 533.632812 595.761719 537.277344 C 593.234375 540.921875 590.609375 544.492188 587.878906 547.984375 C 585.148438 551.476562 582.320312 554.890625 579.394531 558.222656 C 576.46875 561.554688 573.449219 564.800781 570.339844 567.960938 C 567.226562 571.117188 564.027344 574.1875 560.742188 577.160156 C 557.453125 580.136719 554.085938 583.015625 550.632812 585.800781 C 547.179688 588.582031 543.652344 591.265625 540.046875 593.84375 C 536.441406 596.425781 532.761719 598.902344 529.015625 601.269531 C 525.269531 603.640625 521.457031 605.902344 517.578125 608.054688 C 513.703125 610.203125 509.765625 612.242188 505.773438 614.171875 C 501.78125 616.097656 497.734375 617.90625 493.636719 619.601562 C 489.539062 621.296875 485.394531 622.871094 481.207031 624.328125 C 477.019531 625.785156 472.796875 627.121094 468.53125 628.335938 C 464.265625 629.554688 459.972656 630.644531 455.644531 631.613281 C 451.316406 632.582031 446.964844 633.429688 442.589844 634.148438 C 438.214844 634.867188 433.824219 635.460938 429.414062 635.929688 C 425.003906 636.398438 420.585938 636.738281 416.15625 636.957031 C 411.730469 637.171875 407.296875 637.257812 402.863281 637.21875 C 398.429688 637.179688 394 637.015625 389.578125 636.722656 C 385.152344 636.429688 380.738281 636.011719 376.339844 635.46875 C 371.9375 634.921875 367.558594 634.253906 363.195312 633.457031 C 358.832031 632.660156 354.5 631.738281 350.1875 630.695312 C 345.878906 629.652344 341.605469 628.484375 337.359375 627.195312 C 333.117188 625.90625 328.917969 624.496094 324.753906 622.964844 C 320.59375 621.4375 316.480469 619.789062 312.410156 618.023438 C 308.34375 616.257812 304.332031 614.375 300.371094 612.382812 C 296.410156 610.386719 292.511719 608.277344 288.671875 606.058594 C 284.835938 603.839844 281.0625 601.511719 277.355469 599.078125 C 273.652344 596.644531 270.019531 594.105469 266.457031 591.460938 C 262.898438 588.820312 259.417969 586.074219 256.011719 583.234375 C 252.609375 580.390625 249.292969 577.453125 246.054688 574.421875 C 242.820312 571.386719 239.675781 568.265625 236.621094 565.054688 C 233.566406 561.839844 230.601562 558.542969 227.734375 555.160156 C 224.867188 551.777344 222.101562 548.316406 219.433594 544.773438 C 216.761719 541.234375 214.199219 537.621094 211.738281 533.933594 C 209.273438 530.246094 206.921875 526.488281 204.675781 522.667969 C 202.425781 518.84375 200.292969 514.960938 198.269531 511.015625 C 196.242188 507.070312 194.335938 503.070312 192.539062 499.015625 C 190.742188 494.960938 189.066406 490.859375 187.507812 486.707031 C 185.945312 482.558594 184.507812 478.367188 183.1875 474.132812 C 181.867188 469.898438 180.667969 465.632812 179.59375 461.332031 C 178.515625 457.03125 177.566406 452.699219 176.738281 448.34375 C 175.910156 443.988281 175.207031 439.613281 174.632812 435.214844 C 174.054688 430.820312 173.605469 426.410156 173.28125 421.988281 C 172.957031 417.566406 172.757812 413.136719 172.6875 408.703125 C 172.617188 404.269531 172.671875 399.839844 172.855469 395.410156 C 173.039062 390.980469 173.347656 386.558594 173.785156 382.144531 C 174.222656 377.734375 174.785156 373.335938 175.472656 368.957031 C 176.160156 364.574219 176.972656 360.21875 177.910156 355.886719 C 178.847656 351.550781 179.910156 347.246094 181.09375 342.976562 C 182.277344 338.703125 183.582031 334.464844 185.011719 330.269531 C 186.4375 326.070312 187.984375 321.917969 189.648438 317.808594 C 191.3125 313.695312 193.09375 309.636719 194.992188 305.632812 C 196.886719 301.625 198.898438 297.671875 201.023438 293.78125 C 203.144531 289.886719 205.378906 286.058594 207.722656 282.296875 C 210.0625 278.53125 212.511719 274.835938 215.066406 271.210938 C 217.621094 267.589844 220.277344 264.039062 223.035156 260.566406 C 225.792969 257.09375 228.648438 253.707031 231.601562 250.398438 C 234.550781 247.089844 237.597656 243.867188 240.730469 240.734375 C 246.105469 235.34375 251.734375 230.234375 257.609375 225.402344 C 263.488281 220.570312 269.589844 216.039062 275.914062 211.804688 C 282.238281 207.574219 288.757812 203.664062 295.464844 200.074219 C 302.175781 196.488281 309.046875 193.238281 316.078125 190.324219 C 323.109375 187.414062 330.265625 184.855469 337.546875 182.648438 C 344.828125 180.441406 352.203125 178.601562 359.667969 177.121094 C 367.132812 175.640625 374.652344 174.535156 382.226562 173.796875 C 389.796875 173.058594 397.390625 172.695312 405 172.707031 Z M 384.367188 26.367188 C 384.324219 25.488281 384.324219 24.609375 384.367188 23.730469 C 384.414062 22.851562 384.503906 21.976562 384.636719 21.105469 C 384.769531 20.238281 384.945312 19.375 385.167969 18.523438 C 385.386719 17.671875 385.652344 16.832031 385.957031 16.007812 C 386.261719 15.183594 386.609375 14.375 387 13.585938 C 387.386719 12.792969 387.8125 12.027344 388.277344 11.28125 C 388.746094 10.53125 389.246094 9.8125 389.785156 9.117188 C 390.324219 8.417969 390.898438 7.753906 391.503906 7.113281 C 392.109375 6.476562 392.746094 5.871094 393.414062 5.296875 C 394.082031 4.726562 394.777344 4.1875 395.5 3.683594 C 396.222656 3.183594 396.96875 2.71875 397.738281 2.289062 C 398.507812 1.863281 399.296875 1.476562 400.105469 1.128906 C 400.914062 0.78125 401.738281 0.476562 402.578125 0.214844 C 403.417969 -0.0507812 404.269531 -0.269531 405.132812 -0.449219 C 405.996094 -0.625 406.863281 -0.757812 407.738281 -0.847656 C 408.613281 -0.9375 409.492188 -0.980469 410.371094 -0.980469 C 411.253906 -0.980469 412.128906 -0.9375 413.007812 -0.847656 C 413.882812 -0.757812 414.75 -0.625 415.613281 -0.449219 C 416.476562 -0.269531 417.324219 -0.0507812 418.164062 0.214844 C 419.003906 0.476562 419.828125 0.78125 420.636719 1.128906 C 421.445312 1.476562 422.238281 1.863281 423.007812 2.289062 C 423.777344 2.71875 424.523438 3.183594 425.242188 3.683594 C 425.964844 4.1875 426.660156 4.726562 427.328125 5.296875 C 427.996094 5.871094 428.632812 6.476562 429.242188 7.113281 C 429.847656 7.753906 430.421875 8.417969 430.960938 9.117188 C 431.496094 9.8125 432 10.53125 432.464844 11.28125 C 432.933594 12.027344 433.359375 12.792969 433.746094 13.585938 C 434.132812 14.375 434.480469 15.183594 434.785156 16.007812 C 435.09375 16.832031 435.355469 17.671875 435.578125 18.523438 C 435.796875 19.375 435.976562 20.238281 436.109375 21.105469 C 436.242188 21.976562 436.332031 22.851562 436.375 23.730469 C 436.421875 24.609375 436.421875 25.488281 436.375 26.367188 L 436.375 92.679688 C 436.421875 93.558594 436.421875 94.4375 436.375 95.316406 C 436.332031 96.195312 436.242188 97.070312 436.109375 97.941406 C 435.976562 98.8125 435.796875 99.671875 435.578125 100.523438 C 435.355469 101.375 435.09375 102.214844 434.785156 103.039062 C 434.480469 103.863281 434.132812 104.671875 433.746094 105.460938 C 433.359375 106.253906 432.933594 107.019531 432.464844 107.769531 C 432 108.515625 431.496094 109.238281 430.960938 109.933594 C 430.421875 110.628906 429.847656 111.296875 429.242188 111.933594 C 428.632812 112.570312 427.996094 113.175781 427.328125 113.75 C 426.660156 114.324219 425.964844 114.859375 425.242188 115.363281 C 424.523438 115.867188 423.777344 116.332031 423.007812 116.757812 C 422.238281 117.183594 421.445312 117.570312 420.636719 117.917969 C 419.828125 118.265625 419.003906 118.570312 418.164062 118.835938 C 417.324219 119.097656 416.476562 119.316406 415.613281 119.496094 C 414.75 119.671875 413.882812 119.804688 413.007812 119.894531 C 412.128906 119.984375 411.253906 120.027344 410.371094 120.027344 C 409.492188 120.027344 408.613281 119.984375 407.738281 119.894531 C 406.863281 119.804688 405.996094 119.671875 405.132812 119.496094 C 404.269531 119.316406 403.417969 119.097656 402.578125 118.835938 C 401.738281 118.570312 400.914062 118.265625 400.105469 117.917969 C 399.296875 117.570312 398.507812 117.183594 397.738281 116.757812 C 396.96875 116.332031 396.222656 115.867188 395.5 115.363281 C 394.777344 114.859375 394.082031 114.324219 393.414062 113.75 C 392.746094 113.175781 392.109375 112.570312 391.503906 111.933594 C 390.898438 111.296875 390.324219 110.628906 389.785156 109.933594 C 389.246094 109.238281 388.746094 108.515625 388.277344 107.769531 C 387.8125 107.019531 387.386719 106.253906 387 105.460938 C 386.609375 104.671875 386.265625 103.863281 385.957031 103.039062 C 385.652344 102.214844 385.386719 101.375 385.167969 100.523438 C 384.945312 99.671875 384.769531 98.8125 384.636719 97.941406 C 384.503906 97.070312 384.414062 96.195312 384.367188 95.316406 C 384.324219 94.4375 384.324219 93.558594 384.367188 92.679688 Z M 576.714844 66.578125 C 577.109375 65.792969 577.542969 65.027344 578.011719 64.285156 C 578.484375 63.542969 578.992188 62.828125 579.535156 62.136719 C 580.078125 61.449219 580.65625 60.785156 581.269531 60.15625 C 581.878906 59.523438 582.519531 58.925781 583.191406 58.359375 C 583.863281 57.792969 584.5625 57.261719 585.289062 56.769531 C 586.015625 56.273438 586.765625 55.816406 587.539062 55.398438 C 588.3125 54.980469 589.101562 54.601562 589.914062 54.261719 C 590.726562 53.925781 591.550781 53.628906 592.390625 53.375 C 593.234375 53.121094 594.085938 52.910156 594.949219 52.742188 C 595.8125 52.574219 596.679688 52.453125 597.554688 52.371094 C 598.429688 52.292969 599.308594 52.257812 600.183594 52.269531 C 601.0625 52.28125 601.941406 52.335938 602.8125 52.433594 C 603.6875 52.535156 604.550781 52.675781 605.410156 52.863281 C 606.269531 53.050781 607.117188 53.28125 607.949219 53.554688 C 608.785156 53.828125 609.605469 54.144531 610.40625 54.503906 C 611.210938 54.859375 611.992188 55.257812 612.753906 55.691406 C 613.519531 56.128906 614.257812 56.605469 614.972656 57.117188 C 615.683594 57.628906 616.371094 58.175781 617.03125 58.757812 C 617.6875 59.335938 618.316406 59.953125 618.914062 60.597656 C 619.507812 61.242188 620.070312 61.917969 620.597656 62.621094 C 621.125 63.320312 621.617188 64.050781 622.070312 64.800781 C 622.523438 65.554688 622.9375 66.328125 623.3125 67.125 C 623.6875 67.917969 624.019531 68.730469 624.3125 69.558594 C 624.605469 70.386719 624.855469 71.230469 625.0625 72.082031 C 625.269531 72.9375 625.429688 73.800781 625.550781 74.671875 C 625.667969 75.539062 625.742188 76.414062 625.773438 77.292969 C 625.800781 78.171875 625.789062 79.050781 625.726562 79.925781 C 625.667969 80.804688 625.566406 81.675781 625.417969 82.539062 C 625.269531 83.40625 625.078125 84.261719 624.839844 85.109375 C 624.605469 85.957031 624.328125 86.789062 624.007812 87.605469 C 623.6875 88.425781 623.328125 89.226562 622.925781 90.007812 C 622.523438 90.789062 622.085938 91.546875 621.605469 92.285156 L 588.253906 150.03125 C 587.839844 150.785156 587.390625 151.519531 586.90625 152.234375 C 586.421875 152.945312 585.902344 153.632812 585.351562 154.292969 C 584.796875 154.953125 584.210938 155.585938 583.597656 156.1875 C 582.980469 156.789062 582.335938 157.359375 581.660156 157.898438 C 580.988281 158.4375 580.289062 158.9375 579.566406 159.40625 C 578.84375 159.875 578.097656 160.304688 577.332031 160.699219 C 576.566406 161.09375 575.78125 161.449219 574.980469 161.765625 C 574.179688 162.082031 573.363281 162.355469 572.535156 162.589844 C 571.703125 162.824219 570.867188 163.015625 570.015625 163.167969 C 569.167969 163.316406 568.316406 163.425781 567.457031 163.492188 C 566.597656 163.554688 565.734375 163.578125 564.875 163.558594 C 564.011719 163.539062 563.15625 163.472656 562.300781 163.367188 C 561.445312 163.261719 560.597656 163.113281 559.757812 162.921875 C 558.914062 162.730469 558.085938 162.5 557.269531 162.226562 C 556.453125 161.953125 555.652344 161.640625 554.867188 161.285156 C 554.078125 160.933594 553.3125 160.542969 552.566406 160.113281 C 551.820312 159.679688 551.097656 159.214844 550.394531 158.714844 C 549.695312 158.210938 549.023438 157.675781 548.375 157.105469 C 547.726562 156.535156 547.109375 155.9375 546.523438 155.304688 C 545.9375 154.675781 545.382812 154.015625 544.863281 153.332031 C 544.339844 152.644531 543.855469 151.933594 543.40625 151.199219 C 542.953125 150.464844 542.542969 149.710938 542.167969 148.933594 C 541.792969 148.15625 541.457031 147.367188 541.160156 146.554688 C 540.863281 145.746094 540.609375 144.925781 540.394531 144.089844 C 540.179688 143.253906 540.007812 142.410156 539.878906 141.558594 C 539.75 140.707031 539.664062 139.851562 539.617188 138.992188 C 539.574219 138.128906 539.574219 137.269531 539.613281 136.410156 C 539.65625 135.546875 539.742188 134.691406 539.867188 133.839844 C 539.996094 132.988281 540.164062 132.144531 540.375 131.308594 C 540.585938 130.472656 540.839844 129.648438 541.132812 128.839844 C 541.425781 128.03125 541.757812 127.234375 542.128906 126.460938 C 542.503906 125.683594 542.914062 124.925781 543.363281 124.191406 L 576.714844 66.511719 Z M 722.921875 197.753906 C 723.65625 197.328125 724.410156 196.941406 725.183594 196.589844 C 725.957031 196.238281 726.746094 195.925781 727.550781 195.652344 C 728.355469 195.378906 729.171875 195.144531 729.996094 194.949219 C 730.824219 194.757812 731.65625 194.605469 732.5 194.492188 C 733.34375 194.382812 734.1875 194.3125 735.035156 194.28125 C 735.886719 194.253906 736.734375 194.265625 737.582031 194.320312 C 738.429688 194.375 739.269531 194.472656 740.109375 194.609375 C 740.945312 194.75 741.777344 194.925781 742.597656 195.144531 C 743.417969 195.363281 744.226562 195.625 745.019531 195.921875 C 745.816406 196.21875 746.59375 196.558594 747.355469 196.933594 C 748.117188 197.308594 748.859375 197.71875 749.582031 198.164062 C 750.304688 198.613281 751 199.097656 751.675781 199.613281 C 752.347656 200.128906 752.996094 200.675781 753.617188 201.257812 C 754.238281 201.835938 754.828125 202.445312 755.386719 203.082031 C 755.949219 203.722656 756.476562 204.386719 756.972656 205.074219 C 757.46875 205.765625 757.929688 206.476562 758.351562 207.214844 C 758.777344 207.949219 759.167969 208.703125 759.519531 209.476562 C 759.871094 210.25 760.179688 211.039062 760.457031 211.839844 C 760.730469 212.644531 760.960938 213.460938 761.15625 214.289062 C 761.351562 215.113281 761.503906 215.949219 761.613281 216.789062 C 761.726562 217.632812 761.796875 218.476562 761.824219 219.328125 C 761.851562 220.175781 761.839844 221.023438 761.785156 221.871094 C 761.730469 222.71875 761.632812 223.5625 761.496094 224.398438 C 761.359375 225.238281 761.179688 226.066406 760.960938 226.886719 C 760.742188 227.707031 760.484375 228.515625 760.183594 229.3125 C 759.886719 230.105469 759.550781 230.886719 759.175781 231.648438 C 758.800781 232.410156 758.390625 233.152344 757.941406 233.871094 C 757.492188 234.59375 757.011719 235.292969 756.496094 235.964844 C 755.976562 236.640625 755.429688 237.289062 754.851562 237.90625 C 754.269531 238.527344 753.660156 239.117188 753.023438 239.679688 C 752.386719 240.238281 751.722656 240.769531 751.03125 241.261719 C 750.339844 241.757812 749.628906 242.21875 748.894531 242.644531 L 691.214844 276 C 690.480469 276.429688 689.726562 276.828125 688.953125 277.1875 C 688.179688 277.542969 687.386719 277.863281 686.582031 278.144531 C 685.777344 278.425781 684.960938 278.667969 684.128906 278.867188 C 683.300781 279.066406 682.464844 279.226562 681.621094 279.347656 C 680.773438 279.464844 679.925781 279.539062 679.074219 279.574219 C 678.222656 279.609375 677.371094 279.605469 676.519531 279.554688 C 675.664062 279.507812 674.820312 279.414062 673.976562 279.285156 C 673.132812 279.152344 672.296875 278.976562 671.472656 278.765625 C 670.648438 278.550781 669.835938 278.296875 669.035156 278 C 668.234375 277.707031 667.449219 277.375 666.679688 277.003906 C 665.910156 276.632812 665.164062 276.222656 664.4375 275.777344 C 663.707031 275.335938 663.003906 274.855469 662.324219 274.339844 C 661.640625 273.828125 660.988281 273.28125 660.359375 272.703125 C 659.734375 272.125 659.136719 271.515625 658.570312 270.878906 C 658.003906 270.242188 657.46875 269.578125 656.964844 268.886719 C 656.464844 268.199219 655.996094 267.484375 655.5625 266.75 C 655.132812 266.015625 654.738281 265.261719 654.378906 264.484375 C 654.019531 263.710938 653.703125 262.921875 653.421875 262.117188 C 653.140625 261.308594 652.902344 260.492188 652.703125 259.664062 C 652.503906 258.832031 652.34375 257.996094 652.226562 257.152344 C 652.109375 256.304688 652.03125 255.457031 652 254.605469 C 651.964844 253.753906 651.972656 252.902344 652.023438 252.050781 C 652.074219 251.199219 652.164062 250.351562 652.296875 249.507812 C 652.429688 248.664062 652.605469 247.832031 652.820312 247.003906 C 653.035156 246.179688 653.289062 245.367188 653.585938 244.566406 C 653.878906 243.765625 654.210938 242.980469 654.585938 242.214844 C 654.957031 241.445312 655.367188 240.699219 655.8125 239.972656 C 656.257812 239.242188 656.738281 238.539062 657.25 237.859375 C 657.765625 237.179688 658.3125 236.527344 658.890625 235.898438 C 659.472656 235.273438 660.078125 234.675781 660.71875 234.109375 C 661.355469 233.542969 662.019531 233.007812 662.710938 232.507812 C 663.398438 232.007812 664.113281 231.539062 664.847656 231.109375 Z M 783.960938 384.433594 C 784.839844 384.390625 785.71875 384.390625 786.597656 384.433594 C 787.476562 384.480469 788.351562 384.570312 789.222656 384.703125 C 790.09375 384.835938 790.953125 385.011719 791.804688 385.234375 C 792.65625 385.453125 793.496094 385.71875 794.320312 386.023438 C 795.148438 386.328125 795.953125 386.675781 796.746094 387.0625 C 797.535156 387.453125 798.304688 387.878906 799.050781 388.34375 C 799.796875 388.808594 800.519531 389.3125 801.214844 389.851562 C 801.910156 390.390625 802.578125 390.964844 803.214844 391.570312 C 803.851562 392.175781 804.457031 392.8125 805.03125 393.480469 C 805.605469 394.148438 806.140625 394.84375 806.644531 395.566406 C 807.148438 396.289062 807.613281 397.035156 808.039062 397.804688 C 808.464844 398.574219 808.851562 399.363281 809.199219 400.171875 C 809.546875 400.980469 809.851562 401.804688 810.117188 402.644531 C 810.378906 403.484375 810.597656 404.335938 810.777344 405.199219 C 810.953125 406.058594 811.085938 406.929688 811.175781 407.804688 C 811.265625 408.679688 811.308594 409.558594 811.308594 410.4375 C 811.308594 411.320312 811.265625 412.195312 811.175781 413.070312 C 811.085938 413.949219 810.953125 414.816406 810.777344 415.679688 C 810.597656 416.539062 810.378906 417.390625 810.117188 418.230469 C 809.851562 419.070312 809.546875 419.894531 809.199219 420.703125 C 808.851562 421.511719 808.464844 422.300781 808.039062 423.070312 C 807.613281 423.839844 807.148438 424.585938 806.644531 425.308594 C 806.140625 426.03125 805.605469 426.726562 805.03125 427.394531 C 804.457031 428.0625 803.851562 428.699219 803.214844 429.308594 C 802.578125 429.914062 801.910156 430.484375 801.214844 431.023438 C 800.519531 431.5625 799.796875 432.066406 799.050781 432.53125 C 798.304688 432.996094 797.535156 433.425781 796.746094 433.8125 C 795.953125 434.199219 795.148438 434.546875 794.320312 434.851562 C 793.496094 435.160156 792.65625 435.421875 791.804688 435.644531 C 790.953125 435.863281 790.09375 436.039062 789.222656 436.175781 C 788.351562 436.308594 787.476562 436.398438 786.597656 436.441406 C 785.71875 436.488281 784.839844 436.488281 783.960938 436.441406 L 717.320312 436.441406 C 716.441406 436.488281 715.5625 436.488281 714.683594 436.441406 C 713.804688 436.398438 712.929688 436.308594 712.058594 436.175781 C 711.1875 436.039062 710.328125 435.863281 709.476562 435.644531 C 708.625 435.421875 707.785156 435.160156 706.960938 434.851562 C 706.136719 434.546875 705.328125 434.199219 704.539062 433.8125 C 703.746094 433.425781 702.980469 432.996094 702.230469 432.53125 C 701.484375 432.066406 700.765625 431.5625 700.066406 431.023438 C 699.371094 430.484375 698.707031 429.914062 698.066406 429.308594 C 697.429688 428.699219 696.824219 428.0625 696.25 427.394531 C 695.679688 426.726562 695.140625 426.03125 694.636719 425.308594 C 694.132812 424.585938 693.667969 423.839844 693.242188 423.070312 C 692.816406 422.300781 692.429688 421.511719 692.082031 420.703125 C 691.734375 419.894531 691.429688 419.070312 691.164062 418.230469 C 690.902344 417.390625 690.683594 416.539062 690.503906 415.679688 C 690.328125 414.816406 690.195312 413.949219 690.105469 413.070312 C 690.015625 412.195312 689.972656 411.320312 689.972656 410.4375 C 689.972656 409.558594 690.015625 408.679688 690.105469 407.804688 C 690.195312 406.929688 690.328125 406.058594 690.503906 405.199219 C 690.683594 404.335938 690.902344 403.484375 691.164062 402.644531 C 691.429688 401.804688 691.734375 400.980469 692.082031 400.171875 C 692.429688 399.363281 692.816406 398.574219 693.242188 397.804688 C 693.667969 397.035156 694.132812 396.289062 694.636719 395.566406 C 695.140625 394.84375 695.679688 394.148438 696.25 393.480469 C 696.824219 392.8125 697.429688 392.175781 698.066406 391.570312 C 698.707031 390.964844 699.371094 390.390625 700.066406 389.851562 C 700.765625 389.3125 701.484375 388.808594 702.230469 388.34375 C 702.980469 387.878906 703.746094 387.453125 704.539062 387.0625 C 705.328125 386.675781 706.136719 386.328125 706.960938 386.023438 C 707.785156 385.71875 708.625 385.453125 709.476562 385.234375 C 710.328125 385.011719 711.1875 384.835938 712.058594 384.703125 C 712.929688 384.570312 713.804688 384.480469 714.683594 384.433594 C 715.5625 384.390625 716.441406 384.390625 717.320312 384.433594 Z M 743.421875 576.78125 C 744.195312 577.183594 744.949219 577.621094 745.679688 578.097656 C 746.410156 578.574219 747.113281 579.089844 747.789062 579.636719 C 748.46875 580.183594 749.117188 580.765625 749.738281 581.378906 C 750.355469 581.992188 750.941406 582.636719 751.496094 583.308594 C 752.050781 583.980469 752.570312 584.679688 753.054688 585.40625 C 753.539062 586.128906 753.984375 586.878906 754.394531 587.648438 C 754.800781 588.417969 755.171875 589.207031 755.5 590.015625 C 755.828125 590.824219 756.117188 591.644531 756.363281 592.480469 C 756.605469 593.316406 756.808594 594.164062 756.96875 595.019531 C 757.132812 595.878906 757.246094 596.742188 757.320312 597.609375 C 757.394531 598.476562 757.421875 599.347656 757.410156 600.21875 C 757.394531 601.09375 757.335938 601.960938 757.234375 602.828125 C 757.132812 603.691406 756.984375 604.550781 756.796875 605.402344 C 756.605469 606.253906 756.375 607.09375 756.101562 607.921875 C 755.828125 608.746094 755.511719 609.558594 755.15625 610.355469 C 754.800781 611.152344 754.40625 611.925781 753.972656 612.683594 C 753.539062 613.441406 753.066406 614.171875 752.558594 614.878906 C 752.050781 615.589844 751.507812 616.269531 750.933594 616.925781 C 750.355469 617.578125 749.746094 618.199219 749.109375 618.792969 C 748.46875 619.386719 747.800781 619.945312 747.105469 620.46875 C 746.40625 620.992188 745.6875 621.484375 744.941406 621.933594 C 744.195312 622.386719 743.429688 622.800781 742.640625 623.175781 C 741.855469 623.550781 741.050781 623.882812 740.230469 624.175781 C 739.410156 624.472656 738.574219 624.722656 737.730469 624.933594 C 736.882812 625.140625 736.027344 625.308594 735.164062 625.429688 C 734.300781 625.554688 733.433594 625.632812 732.5625 625.667969 C 731.691406 625.703125 730.824219 625.695312 729.953125 625.644531 C 729.082031 625.589844 728.214844 625.496094 727.355469 625.355469 C 726.496094 625.214844 725.644531 625.035156 724.800781 624.808594 C 723.960938 624.582031 723.132812 624.316406 722.316406 624.003906 C 721.5 623.695312 720.703125 623.347656 719.921875 622.957031 C 719.144531 622.566406 718.386719 622.140625 717.648438 621.671875 L 659.90625 588.316406 C 659.125 587.921875 658.371094 587.484375 657.636719 587.011719 C 656.902344 586.539062 656.191406 586.03125 655.511719 585.484375 C 654.828125 584.9375 654.171875 584.359375 653.550781 583.75 C 652.925781 583.136719 652.332031 582.496094 651.773438 581.824219 C 651.214844 581.15625 650.691406 580.457031 650.203125 579.734375 C 649.710938 579.007812 649.261719 578.261719 648.847656 577.492188 C 648.433594 576.722656 648.0625 575.933594 647.726562 575.125 C 647.394531 574.316406 647.101562 573.496094 646.851562 572.65625 C 646.601562 571.820312 646.394531 570.972656 646.230469 570.113281 C 646.066406 569.257812 645.945312 568.394531 645.867188 567.523438 C 645.792969 566.652344 645.757812 565.78125 645.769531 564.90625 C 645.78125 564.03125 645.835938 563.160156 645.9375 562.292969 C 646.035156 561.425781 646.179688 560.566406 646.363281 559.710938 C 646.550781 558.859375 646.78125 558.015625 647.050781 557.183594 C 647.324219 556.355469 647.636719 555.539062 647.992188 554.742188 C 648.34375 553.941406 648.738281 553.164062 649.171875 552.40625 C 649.605469 551.644531 650.074219 550.910156 650.582031 550.199219 C 651.089844 549.488281 651.628906 548.804688 652.207031 548.148438 C 652.785156 547.492188 653.390625 546.863281 654.03125 546.269531 C 654.671875 545.675781 655.339844 545.113281 656.035156 544.585938 C 656.734375 544.058594 657.453125 543.566406 658.199219 543.113281 C 658.945312 542.660156 659.714844 542.242188 660.503906 541.867188 C 661.289062 541.488281 662.097656 541.152344 662.917969 540.859375 C 663.742188 540.5625 664.574219 540.308594 665.421875 540.097656 C 666.273438 539.886719 667.128906 539.722656 667.992188 539.597656 C 668.859375 539.472656 669.726562 539.390625 670.601562 539.355469 C 671.472656 539.320312 672.34375 539.328125 673.21875 539.378906 C 674.089844 539.433594 674.957031 539.527344 675.820312 539.667969 C 676.683594 539.808594 677.535156 539.992188 678.378906 540.21875 C 679.222656 540.441406 680.054688 540.710938 680.871094 541.019531 C 681.6875 541.332031 682.488281 541.683594 683.269531 542.074219 C 684.050781 542.464844 684.808594 542.894531 685.546875 543.363281 L 743.226562 576.714844 Z M 612.3125 722.921875 C 612.738281 723.65625 613.125 724.410156 613.476562 725.183594 C 613.832031 725.957031 614.144531 726.746094 614.417969 727.550781 C 614.691406 728.355469 614.925781 729.171875 615.121094 730 C 615.3125 730.824219 615.46875 731.660156 615.578125 732.503906 C 615.691406 733.34375 615.761719 734.191406 615.789062 735.039062 C 615.820312 735.886719 615.808594 736.738281 615.753906 737.585938 C 615.699219 738.433594 615.601562 739.277344 615.464844 740.113281 C 615.328125 740.953125 615.148438 741.78125 614.929688 742.601562 C 614.710938 743.421875 614.453125 744.230469 614.152344 745.027344 C 613.855469 745.824219 613.519531 746.601562 613.144531 747.363281 C 612.769531 748.125 612.359375 748.867188 611.910156 749.589844 C 611.460938 750.3125 610.980469 751.011719 610.464844 751.6875 C 609.949219 752.359375 609.398438 753.007812 608.820312 753.628906 C 608.238281 754.25 607.628906 754.839844 606.992188 755.402344 C 606.351562 755.960938 605.6875 756.488281 605 756.984375 C 604.308594 757.480469 603.597656 757.941406 602.859375 758.367188 C 602.125 758.792969 601.371094 759.179688 600.597656 759.53125 C 599.824219 759.882812 599.035156 760.195312 598.230469 760.46875 C 597.425781 760.742188 596.609375 760.976562 595.78125 761.171875 C 594.957031 761.363281 594.121094 761.515625 593.277344 761.628906 C 592.4375 761.738281 591.589844 761.808594 590.742188 761.839844 C 589.894531 761.867188 589.042969 761.851562 588.195312 761.796875 C 587.347656 761.742188 586.503906 761.648438 585.667969 761.507812 C 584.828125 761.371094 584 761.191406 583.179688 760.972656 C 582.359375 760.753906 581.550781 760.496094 580.753906 760.195312 C 579.960938 759.898438 579.179688 759.558594 578.417969 759.183594 C 577.65625 758.808594 576.914062 758.398438 576.191406 757.949219 C 575.472656 757.5 574.773438 757.019531 574.097656 756.5 C 573.425781 755.984375 572.777344 755.4375 572.15625 754.855469 C 571.535156 754.273438 570.945312 753.664062 570.386719 753.027344 C 569.824219 752.386719 569.296875 751.722656 568.800781 751.03125 C 568.308594 750.34375 567.847656 749.628906 567.421875 748.894531 L 533.933594 691.214844 C 533.503906 690.480469 533.109375 689.726562 532.75 688.953125 C 532.394531 688.179688 532.074219 687.390625 531.792969 686.582031 C 531.515625 685.777344 531.273438 684.960938 531.074219 684.132812 C 530.875 683.304688 530.714844 682.46875 530.597656 681.621094 C 530.480469 680.777344 530.40625 679.929688 530.371094 679.078125 C 530.335938 678.226562 530.34375 677.375 530.394531 676.523438 C 530.441406 675.671875 530.535156 674.828125 530.667969 673.984375 C 530.800781 673.140625 530.972656 672.308594 531.1875 671.484375 C 531.402344 670.660156 531.65625 669.84375 531.949219 669.046875 C 532.246094 668.246094 532.578125 667.460938 532.949219 666.695312 C 533.320312 665.925781 533.726562 665.179688 534.171875 664.453125 C 534.617188 663.726562 535.097656 663.019531 535.609375 662.339844 C 536.125 661.660156 536.671875 661.007812 537.25 660.378906 C 537.828125 659.753906 538.433594 659.15625 539.070312 658.589844 C 539.707031 658.023438 540.371094 657.488281 541.058594 656.988281 C 541.75 656.484375 542.460938 656.019531 543.195312 655.585938 C 543.933594 655.15625 544.6875 654.761719 545.460938 654.402344 C 546.234375 654.046875 547.023438 653.726562 547.828125 653.445312 C 548.632812 653.167969 549.453125 652.925781 550.28125 652.726562 C 551.109375 652.527344 551.945312 652.367188 552.789062 652.25 C 553.632812 652.132812 554.480469 652.058594 555.335938 652.023438 C 556.1875 651.988281 557.039062 651.996094 557.886719 652.046875 C 558.738281 652.09375 559.585938 652.1875 560.429688 652.316406 C 561.269531 652.449219 562.105469 652.625 562.929688 652.839844 C 563.753906 653.054688 564.566406 653.308594 565.367188 653.601562 C 566.167969 653.898438 566.949219 654.230469 567.71875 654.601562 C 568.484375 654.972656 569.234375 655.378906 569.960938 655.824219 C 570.6875 656.269531 571.390625 656.75 572.070312 657.261719 C 572.753906 657.777344 573.40625 658.324219 574.03125 658.902344 C 574.660156 659.480469 575.253906 660.085938 575.824219 660.722656 C 576.390625 661.359375 576.921875 662.023438 577.425781 662.710938 C 577.925781 663.402344 578.394531 664.113281 578.824219 664.847656 L 612.179688 722.59375 Z M 425.632812 783.960938 C 425.675781 784.839844 425.675781 785.71875 425.632812 786.597656 C 425.585938 787.476562 425.496094 788.351562 425.363281 789.222656 C 425.230469 790.09375 425.054688 790.953125 424.832031 791.804688 C 424.613281 792.65625 424.347656 793.496094 424.042969 794.320312 C 423.734375 795.148438 423.390625 795.953125 423 796.746094 C 422.613281 797.535156 422.1875 798.304688 421.722656 799.050781 C 421.253906 799.796875 420.753906 800.519531 420.214844 801.214844 C 419.675781 801.910156 419.101562 802.578125 418.496094 803.214844 C 417.890625 803.851562 417.253906 804.457031 416.585938 805.03125 C 415.917969 805.605469 415.222656 806.140625 414.5 806.644531 C 413.777344 807.148438 413.03125 807.613281 412.261719 808.039062 C 411.492188 808.464844 410.703125 808.851562 409.894531 809.199219 C 409.085938 809.546875 408.261719 809.851562 407.421875 810.117188 C 406.582031 810.378906 405.730469 810.597656 404.867188 810.777344 C 404.003906 810.953125 403.136719 811.085938 402.261719 811.175781 C 401.386719 811.265625 400.507812 811.308594 399.628906 811.308594 C 398.746094 811.308594 397.871094 811.265625 396.992188 811.175781 C 396.117188 811.085938 395.25 810.953125 394.386719 810.777344 C 393.527344 810.597656 392.675781 810.378906 391.835938 810.117188 C 390.996094 809.851562 390.171875 809.546875 389.363281 809.199219 C 388.554688 808.851562 387.765625 808.464844 386.992188 808.039062 C 386.222656 807.613281 385.480469 807.148438 384.757812 806.644531 C 384.035156 806.140625 383.339844 805.605469 382.671875 805.03125 C 382.003906 804.457031 381.367188 803.851562 380.757812 803.214844 C 380.152344 802.578125 379.578125 801.910156 379.039062 801.214844 C 378.503906 800.519531 378 799.796875 377.535156 799.050781 C 377.070312 798.304688 376.640625 797.535156 376.253906 796.746094 C 375.867188 795.953125 375.519531 795.148438 375.214844 794.320312 C 374.90625 793.496094 374.644531 792.65625 374.421875 791.804688 C 374.203125 790.953125 374.023438 790.09375 373.890625 789.222656 C 373.757812 788.351562 373.667969 787.476562 373.625 786.597656 C 373.578125 785.71875 373.578125 784.839844 373.621094 783.960938 L 373.621094 717.320312 C 373.578125 716.441406 373.578125 715.5625 373.625 714.683594 C 373.667969 713.804688 373.757812 712.929688 373.890625 712.058594 C 374.023438 711.1875 374.203125 710.328125 374.421875 709.476562 C 374.644531 708.625 374.90625 707.785156 375.214844 706.960938 C 375.519531 706.136719 375.867188 705.328125 376.253906 704.539062 C 376.640625 703.746094 377.070312 702.980469 377.535156 702.230469 C 378 701.484375 378.503906 700.765625 379.039062 700.066406 C 379.578125 699.371094 380.152344 698.707031 380.757812 698.066406 C 381.367188 697.429688 382.003906 696.824219 382.671875 696.25 C 383.339844 695.679688 384.035156 695.140625 384.757812 694.636719 C 385.480469 694.132812 386.222656 693.667969 386.992188 693.242188 C 387.765625 692.816406 388.554688 692.429688 389.363281 692.082031 C 390.171875 691.734375 390.996094 691.429688 391.835938 691.164062 C 392.675781 690.902344 393.527344 690.683594 394.386719 690.503906 C 395.25 690.328125 396.117188 690.195312 396.992188 690.105469 C 397.871094 690.015625 398.746094 689.972656 399.628906 689.972656 C 400.507812 689.972656 401.386719 690.015625 402.261719 690.105469 C 403.136719 690.195312 404.003906 690.328125 404.867188 690.503906 C 405.730469 690.683594 406.582031 690.902344 407.421875 691.164062 C 408.261719 691.429688 409.085938 691.734375 409.894531 692.082031 C 410.703125 692.429688 411.492188 692.816406 412.261719 693.242188 C 413.03125 693.667969 413.777344 694.132812 414.5 694.636719 C 415.222656 695.140625 415.917969 695.679688 416.585938 696.25 C 417.253906 696.824219 417.890625 697.429688 418.496094 698.066406 C 419.101562 698.707031 419.675781 699.371094 420.214844 700.066406 C 420.753906 700.765625 421.253906 701.484375 421.722656 702.230469 C 422.1875 702.980469 422.613281 703.746094 423 704.539062 C 423.390625 705.328125 423.734375 706.136719 424.042969 706.960938 C 424.347656 707.785156 424.613281 708.625 424.832031 709.476562 C 425.054688 710.328125 425.230469 711.1875 425.363281 712.058594 C 425.496094 712.929688 425.585938 713.804688 425.632812 714.683594 C 425.675781 715.5625 425.675781 716.441406 425.632812 717.320312 Z M 233.285156 743.421875 C 232.84375 744.121094 232.367188 744.792969 231.863281 745.445312 C 231.355469 746.097656 230.820312 746.722656 230.253906 747.324219 C 229.691406 747.925781 229.097656 748.496094 228.476562 749.042969 C 227.855469 749.585938 227.210938 750.097656 226.542969 750.582031 C 225.875 751.0625 225.183594 751.511719 224.46875 751.929688 C 223.757812 752.347656 223.027344 752.726562 222.277344 753.074219 C 221.53125 753.421875 220.765625 753.730469 219.988281 754.003906 C 219.210938 754.277344 218.417969 754.515625 217.617188 754.710938 C 216.816406 754.910156 216.007812 755.070312 215.195312 755.191406 C 214.378906 755.3125 213.558594 755.394531 212.734375 755.4375 C 211.910156 755.480469 211.085938 755.480469 210.261719 755.445312 C 209.4375 755.410156 208.617188 755.335938 207.800781 755.21875 C 206.980469 755.105469 206.171875 754.953125 205.371094 754.761719 C 204.566406 754.566406 203.777344 754.339844 202.996094 754.070312 C 202.214844 753.804688 201.449219 753.5 200.699219 753.160156 C 199.945312 752.816406 199.210938 752.441406 198.496094 752.03125 C 197.78125 751.621094 197.085938 751.175781 196.414062 750.699219 C 195.742188 750.222656 195.09375 749.714844 194.46875 749.175781 C 193.84375 748.636719 193.246094 748.066406 192.675781 747.472656 C 192.105469 746.875 191.566406 746.253906 191.054688 745.605469 C 190.542969 744.957031 190.0625 744.285156 189.617188 743.59375 C 189.171875 742.898438 188.757812 742.1875 188.378906 741.453125 C 188 740.71875 187.65625 739.972656 187.351562 739.203125 C 187.042969 738.4375 186.773438 737.660156 186.542969 736.867188 C 186.308594 736.078125 186.113281 735.277344 185.957031 734.464844 C 185.800781 733.65625 185.683594 732.839844 185.605469 732.019531 C 185.527344 731.199219 185.488281 730.375 185.492188 729.550781 C 185.492188 728.722656 185.53125 727.902344 185.609375 727.078125 C 185.6875 726.257812 185.808594 725.441406 185.964844 724.632812 C 186.121094 723.824219 186.316406 723.023438 186.550781 722.230469 C 186.785156 721.441406 187.054688 720.660156 187.363281 719.894531 C 187.671875 719.128906 188.015625 718.382812 188.394531 717.648438 L 221.746094 659.90625 C 222.136719 659.109375 222.5625 658.335938 223.027344 657.585938 C 223.492188 656.832031 223.996094 656.105469 224.535156 655.40625 C 225.078125 654.707031 225.652344 654.035156 226.261719 653.394531 C 226.871094 652.753906 227.507812 652.144531 228.179688 651.570312 C 228.851562 650.992188 229.550781 650.453125 230.277344 649.949219 C 231.003906 649.445312 231.753906 648.980469 232.527344 648.554688 C 233.304688 648.125 234.097656 647.738281 234.910156 647.394531 C 235.726562 647.046875 236.554688 646.742188 237.398438 646.484375 C 238.246094 646.222656 239.101562 646.003906 239.96875 645.832031 C 240.835938 645.65625 241.707031 645.53125 242.589844 645.445312 C 243.46875 645.363281 244.351562 645.324219 245.234375 645.328125 C 246.121094 645.335938 247.003906 645.386719 247.882812 645.484375 C 248.761719 645.582031 249.632812 645.722656 250.496094 645.910156 C 251.359375 646.09375 252.214844 646.324219 253.054688 646.597656 C 253.894531 646.871094 254.71875 647.1875 255.527344 647.546875 C 256.339844 647.902344 257.125 648.300781 257.894531 648.742188 C 258.660156 649.179688 259.40625 649.65625 260.125 650.171875 C 260.84375 650.683594 261.535156 651.234375 262.195312 651.820312 C 262.859375 652.40625 263.492188 653.023438 264.089844 653.675781 C 264.691406 654.324219 265.253906 655.003906 265.785156 655.710938 C 266.3125 656.417969 266.808594 657.152344 267.261719 657.910156 C 267.714844 658.667969 268.132812 659.449219 268.507812 660.25 C 268.882812 661.050781 269.214844 661.867188 269.503906 662.703125 C 269.796875 663.539062 270.042969 664.386719 270.25 665.246094 C 270.453125 666.109375 270.613281 666.976562 270.730469 667.851562 C 270.84375 668.730469 270.914062 669.609375 270.941406 670.492188 C 270.964844 671.378906 270.945312 672.261719 270.878906 673.144531 C 270.816406 674.023438 270.703125 674.902344 270.550781 675.773438 C 270.394531 676.640625 270.195312 677.503906 269.953125 678.351562 C 269.710938 679.203125 269.425781 680.039062 269.097656 680.859375 C 268.765625 681.679688 268.398438 682.484375 267.988281 683.265625 C 267.578125 684.050781 267.125 684.808594 266.636719 685.546875 L 233.285156 743.226562 Z M 87.078125 612.3125 C 86.34375 612.738281 85.589844 613.125 84.816406 613.480469 C 84.042969 613.832031 83.253906 614.144531 82.449219 614.417969 C 81.644531 614.691406 80.828125 614.925781 80 615.121094 C 79.175781 615.3125 78.339844 615.46875 77.496094 615.578125 C 76.65625 615.691406 75.808594 615.761719 74.960938 615.789062 C 74.113281 615.820312 73.261719 615.808594 72.414062 615.753906 C 71.566406 615.699219 70.722656 615.601562 69.886719 615.464844 C 69.046875 615.328125 68.21875 615.148438 67.398438 614.929688 C 66.578125 614.710938 65.769531 614.453125 64.972656 614.152344 C 64.175781 613.855469 63.398438 613.519531 62.636719 613.144531 C 61.875 612.769531 61.132812 612.359375 60.410156 611.910156 C 59.6875 611.460938 58.988281 610.980469 58.3125 610.464844 C 57.640625 609.945312 56.992188 609.398438 56.371094 608.820312 C 55.75 608.238281 55.160156 607.628906 54.597656 606.992188 C 54.039062 606.351562 53.511719 605.6875 53.015625 605 C 52.519531 604.308594 52.058594 603.597656 51.632812 602.859375 C 51.207031 602.125 50.820312 601.371094 50.46875 600.597656 C 50.117188 599.824219 49.804688 599.035156 49.53125 598.230469 C 49.257812 597.425781 49.023438 596.609375 48.828125 595.78125 C 48.636719 594.957031 48.484375 594.121094 48.371094 593.277344 C 48.261719 592.4375 48.191406 591.589844 48.160156 590.742188 C 48.132812 589.894531 48.148438 589.042969 48.203125 588.195312 C 48.257812 587.347656 48.351562 586.503906 48.492188 585.667969 C 48.628906 584.828125 48.808594 584 49.027344 583.179688 C 49.246094 582.359375 49.503906 581.550781 49.804688 580.753906 C 50.101562 579.960938 50.441406 579.179688 50.816406 578.417969 C 51.191406 577.65625 51.601562 576.914062 52.050781 576.191406 C 52.5 575.46875 52.980469 574.773438 53.5 574.097656 C 54.015625 573.425781 54.5625 572.777344 55.144531 572.15625 C 55.726562 571.535156 56.335938 570.945312 56.972656 570.386719 C 57.613281 569.824219 58.277344 569.296875 58.96875 568.800781 C 59.65625 568.308594 60.371094 567.847656 61.105469 567.421875 L 118.652344 533.933594 C 119.390625 533.503906 120.144531 533.105469 120.921875 532.75 C 121.699219 532.390625 122.492188 532.070312 123.296875 531.789062 C 124.105469 531.511719 124.925781 531.269531 125.757812 531.070312 C 126.585938 530.871094 127.425781 530.710938 128.273438 530.59375 C 129.121094 530.476562 129.972656 530.402344 130.824219 530.367188 C 131.679688 530.332031 132.535156 530.339844 133.386719 530.390625 C 134.238281 530.441406 135.089844 530.53125 135.933594 530.667969 C 136.777344 530.800781 137.613281 530.976562 138.441406 531.191406 C 139.269531 531.40625 140.082031 531.660156 140.886719 531.957031 C 141.6875 532.253906 142.472656 532.589844 143.242188 532.960938 C 144.011719 533.335938 144.761719 533.746094 145.488281 534.191406 C 146.21875 534.636719 146.921875 535.121094 147.605469 535.636719 C 148.285156 536.152344 148.941406 536.699219 149.570312 537.28125 C 150.195312 537.859375 150.792969 538.46875 151.363281 539.109375 C 151.929688 539.75 152.464844 540.414062 152.96875 541.105469 C 153.46875 541.796875 153.9375 542.511719 154.367188 543.25 C 154.800781 543.988281 155.195312 544.746094 155.554688 545.519531 C 155.910156 546.296875 156.230469 547.089844 156.507812 547.898438 C 156.789062 548.707031 157.027344 549.527344 157.226562 550.355469 C 157.425781 551.1875 157.585938 552.027344 157.703125 552.875 C 157.816406 553.722656 157.894531 554.570312 157.925781 555.425781 C 157.957031 556.28125 157.949219 557.132812 157.898438 557.988281 C 157.847656 558.839844 157.753906 559.691406 157.621094 560.535156 C 157.488281 561.378906 157.3125 562.214844 157.09375 563.042969 C 156.878906 563.867188 156.621094 564.683594 156.324219 565.484375 C 156.027344 566.285156 155.691406 567.070312 155.320312 567.839844 C 154.945312 568.609375 154.535156 569.359375 154.085938 570.085938 C 153.640625 570.816406 153.15625 571.519531 152.640625 572.199219 C 152.125 572.882812 151.574219 573.535156 150.996094 574.164062 C 150.414062 574.789062 149.804688 575.386719 149.164062 575.953125 C 148.523438 576.523438 147.859375 577.054688 147.164062 577.558594 C 146.472656 578.058594 145.757812 578.527344 145.019531 578.957031 L 87.273438 612.3125 Z M 26.367188 425.632812 C 25.488281 425.675781 24.609375 425.675781 23.730469 425.632812 C 22.851562 425.585938 21.976562 425.496094 21.105469 425.363281 C 20.238281 425.230469 19.375 425.054688 18.523438 424.832031 C 17.671875 424.613281 16.832031 424.347656 16.007812 424.042969 C 15.183594 423.734375 14.375 423.390625 13.585938 423 C 12.796875 422.613281 12.027344 422.1875 11.28125 421.722656 C 10.53125 421.253906 9.8125 420.753906 9.117188 420.214844 C 8.417969 419.675781 7.753906 419.101562 7.117188 418.496094 C 6.476562 417.890625 5.871094 417.253906 5.296875 416.585938 C 4.726562 415.917969 4.1875 415.222656 3.683594 414.5 C 3.183594 413.777344 2.71875 413.03125 2.289062 412.261719 C 1.863281 411.492188 1.476562 410.703125 1.128906 409.894531 C 0.78125 409.085938 0.476562 408.261719 0.214844 407.421875 C -0.0507812 406.582031 -0.269531 405.730469 -0.445312 404.867188 C -0.625 404.003906 -0.757812 403.136719 -0.847656 402.261719 C -0.933594 401.386719 -0.980469 400.507812 -0.980469 399.628906 C -0.980469 398.746094 -0.933594 397.871094 -0.847656 396.992188 C -0.757812 396.117188 -0.625 395.25 -0.445312 394.386719 C -0.269531 393.527344 -0.0507812 392.675781 0.214844 391.835938 C 0.476562 390.996094 0.78125 390.171875 1.128906 389.363281 C 1.476562 388.554688 1.863281 387.765625 2.289062 386.992188 C 2.71875 386.222656 3.183594 385.476562 3.683594 384.757812 C 4.1875 384.035156 4.726562 383.339844 5.296875 382.671875 C 5.871094 382.003906 6.476562 381.367188 7.117188 380.757812 C 7.753906 380.152344 8.417969 379.578125 9.117188 379.039062 C 9.8125 378.503906 10.53125 378 11.28125 377.535156 C 12.027344 377.070312 12.796875 376.640625 13.585938 376.253906 C 14.375 375.867188 15.183594 375.519531 16.007812 375.214844 C 16.832031 374.90625 17.671875 374.644531 18.523438 374.421875 C 19.375 374.203125 20.238281 374.023438 21.105469 373.890625 C 21.976562 373.757812 22.851562 373.667969 23.730469 373.625 C 24.609375 373.578125 25.488281 373.578125 26.367188 373.621094 L 92.679688 373.621094 C 93.558594 373.578125 94.4375 373.578125 95.316406 373.625 C 96.195312 373.667969 97.070312 373.757812 97.941406 373.890625 C 98.8125 374.023438 99.671875 374.203125 100.523438 374.421875 C 101.375 374.644531 102.214844 374.90625 103.039062 375.214844 C 103.863281 375.519531 104.671875 375.867188 105.460938 376.253906 C 106.253906 376.640625 107.019531 377.070312 107.769531 377.535156 C 108.515625 378 109.234375 378.503906 109.933594 379.039062 C 110.628906 379.578125 111.292969 380.152344 111.933594 380.757812 C 112.570312 381.367188 113.175781 382.003906 113.75 382.671875 C 114.320312 383.339844 114.859375 384.035156 115.363281 384.757812 C 115.867188 385.476562 116.332031 386.222656 116.757812 386.992188 C 117.183594 387.765625 117.570312 388.554688 117.917969 389.363281 C 118.265625 390.171875 118.570312 390.996094 118.835938 391.835938 C 119.097656 392.675781 119.316406 393.527344 119.496094 394.386719 C 119.671875 395.25 119.804688 396.117188 119.894531 396.992188 C 119.984375 397.871094 120.027344 398.746094 120.027344 399.628906 C 120.027344 400.507812 119.984375 401.386719 119.894531 402.261719 C 119.804688 403.136719 119.671875 404.003906 119.496094 404.867188 C 119.316406 405.730469 119.097656 406.582031 118.835938 407.421875 C 118.570312 408.261719 118.265625 409.085938 117.917969 409.894531 C 117.570312 410.703125 117.183594 411.492188 116.757812 412.261719 C 116.332031 413.03125 115.867188 413.777344 115.363281 414.5 C 114.859375 415.222656 114.320312 415.917969 113.75 416.585938 C 113.175781 417.253906 112.570312 417.890625 111.933594 418.496094 C 111.292969 419.101562 110.628906 419.675781 109.933594 420.214844 C 109.234375 420.753906 108.515625 421.253906 107.769531 421.722656 C 107.019531 422.1875 106.253906 422.613281 105.460938 423 C 104.671875 423.390625 103.863281 423.734375 103.039062 424.042969 C 102.214844 424.347656 101.375 424.613281 100.523438 424.832031 C 99.671875 425.054688 98.8125 425.230469 97.941406 425.363281 C 97.070312 425.496094 96.195312 425.585938 95.316406 425.632812 C 94.4375 425.675781 93.558594 425.675781 92.679688 425.632812 Z M 66.578125 233.285156 C 65.792969 232.890625 65.027344 232.457031 64.285156 231.988281 C 63.542969 231.515625 62.828125 231.007812 62.136719 230.464844 C 61.449219 229.921875 60.785156 229.34375 60.15625 228.730469 C 59.523438 228.121094 58.925781 227.480469 58.359375 226.808594 C 57.792969 226.136719 57.261719 225.4375 56.769531 224.710938 C 56.273438 223.984375 55.816406 223.234375 55.398438 222.460938 C 54.976562 221.6875 54.601562 220.898438 54.261719 220.085938 C 53.921875 219.273438 53.628906 218.449219 53.375 217.609375 C 53.121094 216.765625 52.910156 215.914062 52.742188 215.050781 C 52.574219 214.1875 52.449219 213.320312 52.371094 212.445312 C 52.292969 211.570312 52.257812 210.691406 52.269531 209.8125 C 52.28125 208.9375 52.335938 208.058594 52.433594 207.1875 C 52.53125 206.3125 52.675781 205.449219 52.863281 204.589844 C 53.050781 203.730469 53.28125 202.882812 53.554688 202.050781 C 53.828125 201.214844 54.144531 200.394531 54.503906 199.59375 C 54.859375 198.789062 55.257812 198.007812 55.691406 197.242188 C 56.128906 196.480469 56.605469 195.742188 57.117188 195.027344 C 57.628906 194.3125 58.175781 193.628906 58.753906 192.96875 C 59.335938 192.3125 59.949219 191.683594 60.597656 191.085938 C 61.242188 190.492188 61.917969 189.929688 62.617188 189.402344 C 63.320312 188.875 64.050781 188.382812 64.800781 187.929688 C 65.554688 187.476562 66.328125 187.0625 67.125 186.6875 C 67.917969 186.3125 68.730469 185.980469 69.558594 185.6875 C 70.386719 185.394531 71.230469 185.144531 72.082031 184.9375 C 72.9375 184.730469 73.800781 184.570312 74.671875 184.449219 C 75.539062 184.332031 76.414062 184.257812 77.292969 184.226562 C 78.171875 184.199219 79.050781 184.210938 79.925781 184.273438 C 80.800781 184.332031 81.675781 184.433594 82.539062 184.582031 C 83.40625 184.730469 84.261719 184.921875 85.109375 185.160156 C 85.957031 185.394531 86.789062 185.671875 87.605469 185.992188 C 88.425781 186.3125 89.226562 186.671875 90.007812 187.074219 C 90.789062 187.476562 91.546875 187.914062 92.285156 188.394531 L 150.027344 221.746094 C 150.785156 222.160156 151.519531 222.609375 152.234375 223.09375 C 152.945312 223.578125 153.632812 224.097656 154.292969 224.648438 C 154.953125 225.203125 155.585938 225.789062 156.1875 226.402344 C 156.789062 227.019531 157.359375 227.664062 157.898438 228.339844 C 158.4375 229.011719 158.9375 229.710938 159.40625 230.433594 C 159.875 231.15625 160.304688 231.902344 160.699219 232.667969 C 161.09375 233.433594 161.449219 234.21875 161.765625 235.019531 C 162.082031 235.820312 162.355469 236.636719 162.589844 237.464844 C 162.824219 238.296875 163.015625 239.132812 163.167969 239.984375 C 163.316406 240.832031 163.425781 241.683594 163.492188 242.542969 C 163.554688 243.402344 163.578125 244.265625 163.558594 245.125 C 163.539062 245.988281 163.472656 246.84375 163.367188 247.699219 C 163.261719 248.554688 163.113281 249.402344 162.921875 250.242188 C 162.730469 251.085938 162.5 251.914062 162.226562 252.730469 C 161.953125 253.546875 161.640625 254.347656 161.285156 255.132812 C 160.933594 255.921875 160.542969 256.6875 160.113281 257.433594 C 159.679688 258.179688 159.214844 258.902344 158.714844 259.605469 C 158.210938 260.304688 157.675781 260.976562 157.105469 261.625 C 156.535156 262.273438 155.9375 262.890625 155.304688 263.476562 C 154.675781 264.0625 154.015625 264.617188 153.332031 265.136719 C 152.644531 265.660156 151.933594 266.144531 151.199219 266.59375 C 150.464844 267.046875 149.710938 267.457031 148.933594 267.832031 C 148.15625 268.207031 147.363281 268.542969 146.554688 268.839844 C 145.746094 269.136719 144.925781 269.390625 144.089844 269.605469 C 143.253906 269.820312 142.410156 269.992188 141.558594 270.121094 C 140.707031 270.25 139.851562 270.335938 138.992188 270.382812 C 138.128906 270.425781 137.269531 270.425781 136.410156 270.386719 C 135.546875 270.34375 134.691406 270.257812 133.839844 270.132812 C 132.988281 270.003906 132.144531 269.835938 131.308594 269.625 C 130.472656 269.414062 129.648438 269.160156 128.839844 268.867188 C 128.03125 268.574219 127.234375 268.242188 126.460938 267.867188 C 125.683594 267.496094 124.925781 267.085938 124.1875 266.636719 Z M 66.578125 233.285156 " fill-opacity="1" fill-rule="nonzero"/></svg>