<svg version="1.2" xmlns="http://www.w3.org/2000/svg" viewBox="0 0 353 353" width="353" height="353">
	<title>New Project</title>
	<style>
		.s0 { fill: #000000 } 
	</style>
	<path id="S" class="s0" aria-label="S"  d="m97.2 143.4l25.3 35.5-17.1 16.8h-44.5v-26.2h25.9l-24.1-36 16.5-16.4h44.7v26.3zm-18 105.6h52.4l22-21.9-15.3-30.6h15v-37.2l-23.5-48h-53l-21.8 21.4 16 31h-16.1v38z"/>
	<path id="Y" class="s0" aria-label="Y"  d="m176.9 127.5v26.3l-26.1-0.1v-26.2l-26.2-26.1v-26.2h26.2v26.2h26.1v-26.2h26.3v26.2zm-8 79.5h37.4v-29.6l26.2-26.2v-33.9l-23.5-48h-38.1v26.1h-1.6l-12.7-26.1h-38.1v34.5z"/>
	<path id="N" class="s0" aria-label="N"  d="m241.1 229.8v-52.4h-26.2v52.3h-26.2v-52.3l26.2-26.3h26.2l26.3 26.3v52.3zm-34.2 53.3h37.5v-30l15 30h37.5v-60.2l-23.6-47.8-29.8-29.7h-31l-29.7 29.7v60.7z"/>
</svg>