<svg version="1.2" xmlns="http://www.w3.org/2000/svg" viewBox="0 0 1225 357" width="1225" height="357">
	<title>New Project</title>
	<style>
		.s0 { fill: #000000 } 
	</style>
	<path id="synosearch" class="s0" aria-label="synosearch"  d="m89.2 132.4l25.3 35.5-17.1 16.8h-44.5v-26.2h25.9l-24.1-36 16.5-16.4h44.7v26.3zm-18 105.6h52.3l22.1-21.9-15.3-30.6h15v-37.2l-23.5-48h-53l-21.8 21.4 16 31h-16.1v38zm134.9-79.5v26.3h-26.2v-26.3l-26.2-26v-26.3h26.2v26.3h26.2v-26.3h26.2v26.3zm-7.9 79.5h37.3v-29.6l26.3-26.3v-33.8l-23.6-48h-38.1v26.1h-1.7l-12.6-26.1h-38v34.5zm126.4-53.3v-52.3h-26.3v52.3h-26.2v-52.3l26.2-26.3h26.3l26.2 26.3v52.3zm-34.2 53.3h37.5v-30l15 30h37.5v-60.2l-23.5-47.8-29.9-29.7h-31l-29.7 29.7v60.7zm153.9-105.6h-26.3v26.1h26.3zm0 52.4h-26.3l-26.2-26.3v-26.1l26.2-26.2h26.3l26.1 26.2v26.1zm-34.3 23.7l29.5 29.6h30.7l29.6-29.6v-30.6l-23.4-47.8-29.7-29.7h-31l-29.9 29.7v30.9zm137.8-76.1l25.4 35.6-17.1 16.8h-44.6v-26.3h26l-24.2-36 16.5-16.3h44.7v26.2zm-18 105.6h52.4l22-21.9-15.3-30.6h15v-37.2l-23.5-48h-53l-21.7 21.5 15.9 30.9h-16.1v38.1zm166.8-108.5l-29.4-29.2h-30.9l-29.8 29.7v30.9l24.1 47.5 29.6 29.6h39.3v-40.4l20.5-20.5zm-37.3 28.9h10.8v26.3h-31.4l-26.2-26.3v-26.1l26.2-26.2h26.1l23.4 23.4zm-20.5-26.1v17.4l17.4-17.4zm135.6 8.7l-17.6 17.4h17.6zm-26.3 43.6l-23.5-23.4 28.9-28.9h-17.1v-26.3h38l26.2 26.3v52.3zm-7.5 24.3l29.1 28.9 60.3 0.1v-60.2l-23.5-47.8-29.7-29.7h-46.5v38.1l3.4 5.7-17.4 17.2zm126-76.6v19.6l19.7-19.6zm36 16.5l16.2 16.2-19.7 19.6-32.5-32.7v32.7h-26.3v-78.6h52.5l26.1 26.3zm24.8-16.5l-32.3-32.1h-60.6v90.4l24.2 47.2h37.3v-24.7l27 27.1 27.5-27.6-10.8-21.6 11.1-11.2zm53.2 52.3l-26.2-26.2v-26.1l26.2-26.3h26.3v26.3h-26.3v26.1h26.3v26.2zm-8 23.7l29.6 29.6h34.2v-37.4l-7.7-15.1h7.7v-37.2l-23.6-48h-34.6l-29.7 29.7v30.9zm127.8-23.7v-26.3h-26.3v26.3h-26.1v-78.6h26.1v26.2h26.3v-26.2h26.2v78.6zm-34.2 53.2h37.4v-26.2h1.9l13.2 26.2h37.4v-89.6l-23.4-48.1h-38.1v26.1h-2l-12.3-26.1h-38.2v90.5z"/>
</svg>